<svg xmlns="http://www.w3.org/2000/svg" width="120.429" height="77.152" viewBox="0 0 120.429 77.152">
    <defs>
        <style>
            .cls-1{fill:#004998}.cls-2{fill:none;stroke:#000;stroke-miterlimit:10;stroke-width:.75px}
        </style>
    </defs>
    <g id="Group_12492" transform="translate(-370.271 608.007)">
        <path id="Path_2" d="M441.606-530.621v-27.649h-26.642v-42.5h42.5v26.642h27.665l-15.792 15.6h-11.871v12.052zm-25.172-29.12h26.642v25.572L456-547.091V-560h12.74l12.815-12.659H456V-599.3h-39.566z" transform="translate(-1.443 -0.234)"/>
        <path id="Path_3" d="M444.276-570.671h-15.817v-15.819h15.817zm-14.348-1.47h12.878v-12.879h-12.878z" transform="translate(-1.879 -0.695)"/>
        <path id="Path_4" d="M437.026-566.7h13.3v25.87l13.342-13.342V-566.7h12.527l13.342-13.342h-25.87v-26.642h-39.983v39.984zm0-26.642h13.3v13.3h-13.3z" class="cls-1" transform="translate(-1.725 -0.043)"/>
        <path id="Path_5" d="M437.026-566.7h13.3v25.87l13.342-13.342V-566.7h12.527l13.342-13.342h-25.87v-26.642h-39.983v39.984zm0-26.642h13.3v13.3h-13.3z" class="cls-2" transform="translate(-1.725 -0.043)"/>
        <path id="Path_6" d="M424.578-553.6a3.04 3.04 0 0 0-3.04 3.041h1.519a1.52 1.52 0 0 1 1.52-1.521h3.128v-1.52z" class="cls-1" transform="translate(-1.656 -1.757)"/>
        <path id="Path_7" d="M373.329-547.917l1.092-1.105 1.117 1.118-1.1 1.1z" class="cls-1" transform="translate(-0.099 -1.905)"/>
        <path id="Path_8" d="M380.992-544.353a.18.18 0 0 1 .149.064.259.259 0 0 1 .051.166v1.039a.276.276 0 0 1-.051.188.2.2 0 0 1-.149.054H377.5a.185.185 0 0 1-.152-.054.308.308 0 0 1-.045-.188v-1.039a.289.289 0 0 1 .045-.166.17.17 0 0 1 .152-.064z" class="cls-1" transform="translate(-0.227 -2.056)"/>
        <path id="Path_9" d="M383.569-544.353a.251.251 0 0 1 .185.064.225.225 0 0 1 .064.166v1.039a.238.238 0 0 1-.064.188.281.281 0 0 1-.185.054h-2.537a.262.262 0 0 1-.188-.054.261.261 0 0 1-.055-.188v-1.039a.245.245 0 0 1 .055-.166.235.235 0 0 1 .188-.064z" class="cls-1" transform="translate(-0.34 -2.056)"/>
        <path id="Path_10" d="M389.921-544.445v1.513h-.9a3.008 3.008 0 0 1-.942-.14 1.868 1.868 0 0 1-.716-.413 2.14 2.14 0 0 1-.8.419 3.8 3.8 0 0 1-1.06.135h-2.1v-1.513h2.1a2.041 2.041 0 0 0 .592-.069.892.892 0 0 0 .334-.173.471.471 0 0 0 .145-.231.973.973 0 0 0 .034-.249v-1.966h1.506v1.924a.676.676 0 0 0 .121.429.791.791 0 0 0 .276.23.881.881 0 0 0 .307.091c.1.01.17.015.207.015zm-9.149 4.857l-1.02-1.033 1-1.044 1.044 1.044zm2.046-.007l-1.02-1.031 1.007-1.045 1.044 1.045z" class="cls-1" transform="translate(-0.306 -1.966)"/>
        <path id="Rectangle_103" d="M0 0H1.512V8.753H0z" class="cls-1" transform="translate(396.91 -553.641)"/>
        <path id="Path_11" d="M405.293-547.667l1.093-1.105 1.117 1.117-1.1 1.1z" class="cls-1" transform="translate(-1.131 -1.913)"/>
        <path id="Path_12" d="M433.866-547.667l1.092-1.105 1.117 1.117-1.1 1.1z" class="cls-1" transform="translate(-2.054 -1.913)"/>
        <path id="Rectangle_104" d="M0 0H1.512V7.69H0z" class="cls-1" transform="translate(410.336 -552.578)"/>
        <path id="Path_13" d="M416.8-543.345a4.5 4.5 0 0 1-.31 1.509 3.34 3.34 0 0 1-.753 1.14 3.251 3.251 0 0 1-1.159.726 4.34 4.34 0 0 1-1.536.255h-.184v-1.4h.184a3.625 3.625 0 0 0 1.007-.14 1.766 1.766 0 0 0 .7-.485 1.625 1.625 0 0 0 .407-.7 3.52 3.52 0 0 0 .134-1.04v-4.911h1.51z" class="cls-1" transform="translate(-1.376 -1.926)"/>
        <path id="Path_14" d="M408.612-547.142v3.709a3.522 3.522 0 0 1-.134 1.04 1.639 1.639 0 0 1-.406.7 1.775 1.775 0 0 1-.7.485 3.625 3.625 0 0 1-1.007.139H406a3.638 3.638 0 0 1-1.008-.139 1.765 1.765 0 0 1-.7-.485 1.629 1.629 0 0 1-.406-.7 3.49 3.49 0 0 1-.134-1.04v-2.8h-1.512v2.927a4.459 4.459 0 0 0 .31 1.508 3.34 3.34 0 0 0 .753 1.141 3.276 3.276 0 0 0 1.158.726 4.349 4.349 0 0 0 1.537.255h.367a4.34 4.34 0 0 0 1.536-.255 3.272 3.272 0 0 0 1.159-.726 3.342 3.342 0 0 0 .753-1.141 4.486 4.486 0 0 0 .31-1.508v-3.837z" class="cls-1" transform="translate(-1.033 -1.966)"/>
        <path id="Path_15" d="M376.652-547.142v3.709a3.52 3.52 0 0 1-.134 1.04 1.63 1.63 0 0 1-.407.7 1.765 1.765 0 0 1-.7.485 3.625 3.625 0 0 1-1.007.139h-.367a3.638 3.638 0 0 1-1.008-.139 1.765 1.765 0 0 1-.7-.485 1.629 1.629 0 0 1-.406-.7 3.489 3.489 0 0 1-.134-1.04v-2.8h-1.512v2.927a4.463 4.463 0 0 0 .31 1.508 3.342 3.342 0 0 0 .753 1.141 3.276 3.276 0 0 0 1.158.726 4.349 4.349 0 0 0 1.537.255h.367a4.34 4.34 0 0 0 1.536-.255 3.281 3.281 0 0 0 1.159-.726 3.341 3.341 0 0 0 .753-1.141 4.484 4.484 0 0 0 .31-1.508v-3.837z" class="cls-1" transform="translate(0 -1.966)"/>
        <path id="Rectangle_105" d="M0 0H1.512V7.69H0z" class="cls-1" transform="translate(422.77 -552.578)"/>
        <path id="Path_16" d="M432.087-544.484v-.825a4.835 4.835 0 0 0-.139-1.192 2.659 2.659 0 0 0-.44-.951 2.067 2.067 0 0 0-.77-.627 2.576 2.576 0 0 0-1.132-.227 2.505 2.505 0 0 0-1 .2 2.594 2.594 0 0 0-.826.561c-.085.092-.174.2-.267.324a2.284 2.284 0 0 0-.252.434 2.952 2.952 0 0 0-.185.575 3.412 3.412 0 0 0-.074.742 2.993 2.993 0 0 0 .113.862 2.273 2.273 0 0 0 .3.653 1.933 1.933 0 0 0 .449.464 2.585 2.585 0 0 0 .55.308 2.682 2.682 0 0 0 .607.166 3.893 3.893 0 0 0 .619.049h.935a1.992 1.992 0 0 1-.155.735 1.379 1.379 0 0 1-.385.479 1.594 1.594 0 0 1-.386.24 2.591 2.591 0 0 1-.516.164 5.675 5.675 0 0 1-.674.1c-.254.021-.541.033-.865.033v1.512a11.286 11.286 0 0 0 1.132-.051 5.784 5.784 0 0 0 .908-.161 4.037 4.037 0 0 0 .734-.271 3.439 3.439 0 0 0 .607-.378 2.792 2.792 0 0 0 .8-1 3.506 3.506 0 0 0 .294-1.4h6v-1.512zm-1.4-.012a.038.038 0 0 1-.038.038h-1.179a1.188 1.188 0 0 1-1.138-1.408 1.192 1.192 0 0 1 .947-.947 1.188 1.188 0 0 1 1.408 1.138z" class="cls-1" transform="translate(-1.832 -1.928)"/>
        <path id="Path_17" d="M422.968-544.484v-.825a4.835 4.835 0 0 0-.139-1.192 2.659 2.659 0 0 0-.44-.951 2.068 2.068 0 0 0-.77-.627 2.576 2.576 0 0 0-1.132-.227 2.506 2.506 0 0 0-1 .2 2.594 2.594 0 0 0-.825.561 4.082 4.082 0 0 0-.266.324 2.289 2.289 0 0 0-.253.434 2.958 2.958 0 0 0-.185.575 3.415 3.415 0 0 0-.073.742 3 3 0 0 0 .113.862 2.3 2.3 0 0 0 .3.653 1.932 1.932 0 0 0 .449.464 2.582 2.582 0 0 0 .55.308 2.683 2.683 0 0 0 .607.166 3.894 3.894 0 0 0 .619.049h.935a1.973 1.973 0 0 1-.155.735 1.377 1.377 0 0 1-.385.479 1.593 1.593 0 0 1-.386.24 2.571 2.571 0 0 1-.516.164 5.671 5.671 0 0 1-.673.1c-.254.021-.541.033-.865.033v1.512a11.286 11.286 0 0 0 1.132-.051 5.783 5.783 0 0 0 .908-.161 4.035 4.035 0 0 0 .734-.271 3.438 3.438 0 0 0 .607-.378 2.793 2.793 0 0 0 .8-1 3.508 3.508 0 0 0 .294-1.4zm-1.4-.012a.038.038 0 0 1-.038.038h-1.183a1.188 1.188 0 0 1-1.138-1.408 1.192 1.192 0 0 1 .947-.947 1.188 1.188 0 0 1 1.408 1.138z" class="cls-1" transform="translate(-1.538 -1.928)"/>
        <path id="Path_18" d="M396.361-546.409a2.7 2.7 0 0 0-.467-.919 2.272 2.272 0 0 0-.789-.635 2.478 2.478 0 0 0-1.114-.236 2.131 2.131 0 0 0-1.068.246 2.26 2.26 0 0 0-.713.628 3.322 3.322 0 0 0-.452.847c-.114.31-.211.61-.292.9q-.073.248-.142.452a1.949 1.949 0 0 1-.152.345.755.755 0 0 1-.182.223.374.374 0 0 1-.233.078H390l.013 1.512h.747a1.961 1.961 0 0 0 .731-.125 1.642 1.642 0 0 0 .585-.415c.239.129.461.245.662.348a5.9 5.9 0 0 0 .586.26 3.706 3.706 0 0 0 .555.165 2.827 2.827 0 0 0 .576.058c.1 0 .223-.008.365-.022a1.787 1.787 0 0 0 .439-.1 1.834 1.834 0 0 0 .456-.249 1.587 1.587 0 0 0 .406-.458 2.588 2.588 0 0 0 .288-.735 4.524 4.524 0 0 0 .109-1.075 3.813 3.813 0 0 0-.155-1.093m-1.025 1.27a1.188 1.188 0 0 1-1.59.866l-1.09-.451a.037.037 0 0 1-.02-.048l.453-1.093a1.189 1.189 0 0 1 1.737-.512 1.191 1.191 0 0 1 .512 1.237" class="cls-1" transform="translate(-0.637 -1.932)"/>
        <path id="Path_19" d="M375.095-530.049h-1.2l-2.406-4.026h-.025v4.021h-1.2v-5.968h1.2l2.409 4.022h.025v-4.016h1.2z" class="cls-1" transform="translate(0 -2.325)"/>
        <path id="Path_20" d="M381.215-532.5a2.507 2.507 0 0 1-.693 1.818 2.4 2.4 0 0 1-1.8.715 2.376 2.376 0 0 1-1.8-.717 2.518 2.518 0 0 1-.689-1.816v-1.073a2.521 2.521 0 0 1 .687-1.813 2.359 2.359 0 0 1 1.789-.719 2.4 2.4 0 0 1 1.808.719 2.5 2.5 0 0 1 .7 1.813zm-1.193-1.081a1.809 1.809 0 0 0-.348-1.145 1.155 1.155 0 0 0-.963-.446 1.12 1.12 0 0 0-.945.446 1.853 1.853 0 0 0-.338 1.145v1.081a1.856 1.856 0 0 0 .341 1.157 1.126 1.126 0 0 0 .95.445 1.145 1.145 0 0 0 .96-.445 1.851 1.851 0 0 0 .344-1.157z" class="cls-1" transform="translate(-0.193 -2.322)"/>
        <path id="Path_21" d="M385.364-531.335h-1.934l-.4 1.287h-1.25l2.013-5.968h1.225l2.005 5.968h-1.25zm-1.639-.939h1.349l-.66-2.1h-.024z" class="cls-1" transform="translate(-0.372 -2.325)"/>
        <path id="Path_22" d="M389.478-531.667l.075.328h.024l.07-.315 1.3-4.361h1.262l-2.029 5.968h-1.23l-2.025-5.968h1.263z" class="cls-1" transform="translate(-0.538 -2.325)"/>
        <path id="Path_23" d="M395.759-531.335h-1.934l-.4 1.287h-1.25l2.013-5.968h1.225l2.005 5.968h-1.25zm-1.639-.939h1.349l-.661-2.1h-.024z" class="cls-1" transform="translate(-0.707 -2.325)"/>
        <path id="Path_24" d="M399.38-532.434v2.386h-1.2v-5.968h2.066a2.478 2.478 0 0 1 1.6.465 1.578 1.578 0 0 1 .576 1.3 1.31 1.31 0 0 1-.244.793 1.7 1.7 0 0 1-.711.539 1.287 1.287 0 0 1 .761.52 1.655 1.655 0 0 1 .231.9v.439a2.154 2.154 0 0 0 .068.523.716.716 0 0 0 .231.4v.086h-1.234a.665.665 0 0 1-.21-.434 3.766 3.766 0 0 1-.048-.587v-.422a.952.952 0 0 0-.243-.695.928.928 0 0 0-.692-.249zm0-.921h.848a1.122 1.122 0 0 0 .751-.214.79.79 0 0 0 .246-.631.87.87 0 0 0-.248-.651 1 1 0 0 0-.728-.243h-.869z" class="cls-1" transform="translate(-0.901 -2.325)"/>
        <path id="Path_25" d="M406.8-531.335h-1.93l-.4 1.287h-1.25l2.013-5.968h1.226l2 5.968h-1.25zm-1.639-.939h1.349l-.66-2.1h-.024z" class="cls-1" transform="translate(-1.064 -2.325)"/>
        <path id="Path_26" d="M414.054-530.049h-1.2l-2.406-4.026h-.025v4.021h-1.2v-5.968h1.2l2.409 4.022h.025v-4.016h1.2z" class="cls-1" transform="translate(-1.258 -2.325)"/>
        <path id="Path_27" d="M420.6-531.335h-1.93l-.4 1.287h-1.25l2.013-5.968h1.225l2.005 5.968h-1.25zm-1.639-.939h1.349l-.66-2.1h-.024z" class="cls-1" transform="translate(-1.51 -2.325)"/>
        <path id="Path_28" d="M426.115-531.618h.024l1.533-4.4h1.563v5.968h-1.2v-4.075h-.024l-1.476 4.079h-.811l-1.476-4.088h-.025v4.083h-1.2v-5.968h1.57z" class="cls-1" transform="translate(-1.704 -2.325)"/>
        <path id="Rectangle_106" d="M0 0H1.196V5.968H0z" class="cls-1" transform="translate(428.712 -538.342)"/>
        <path id="Path_29" d="M437.947-530.049h-1.2l-2.407-4.026h-.025v4.021h-1.2v-5.968h1.2l2.411 4.022h.025v-4.016h1.2z" class="cls-1" transform="translate(-2.03 -2.325)"/>
        <path id="Path_30" d="M485.926-585.774h-15.859v-15.86h15.859zm-14.389-1.47h12.92v-12.921h-12.92z" transform="translate(-3.223 -0.206)"/>
        <path id="Rectangle_107" d="M0 0H13.343V13.343H0z" class="cls-1" transform="translate(475.21 -606.748)"/>
        <path id="Rectangle_108" d="M0 0H13.343V13.343H0z" class="cls-2" transform="translate(475.21 -606.748)"/>
        <path id="Path_31" d="M493.272-592.146h-15.861v-15.861h15.861zm-14.391-1.47H491.8v-12.921h-12.919z" transform="translate(-3.46 0)"/>
        <path id="Path_32" d="M471.277-585.874l-.988-1.089 7.134-5.976.988 1.088z" transform="translate(-3.23 -0.487)"/>
        <path id="Path_33" d="M471.054-600.752l-.987-1.088 7.1-6.167.987 1.089z" transform="translate(-3.223 0)"/>
        <path id="Rectangle_109" d="M0 0H9.448V1.469H0z" transform="translate(481.745 -587.089) rotate(-40.914)"/>
        <path id="Path_34" d="M448.852-537.836v-27.649H422.21v-42.5h42.5v26.642h27.665l-15.792 15.6h-11.871v12.043zm-25.172-29.119h26.642v25.572l12.921-12.922v-12.912h12.74l12.817-12.659h-25.558v-26.642H423.68z" transform="translate(-1.677 -0.001)"/>
        <path id="Rectangle_110" d="M0 0H9.812V1.469H0z" transform="translate(440.62 -559.801) rotate(-45.027)"/>
        <path id="Rectangle_111" d="M0 0H10.138V1.47H0z" transform="translate(413.979 -559.801) rotate(-45.001)"/>
        <path id="Path_35" d="M443.887-585.055l-1.039-1.038 7.459-7.387 1.039 1.038z" transform="translate(-2.344 -0.469)"/>
        <path id="Path_36" d="M416-599.967l-1.039-1.039 7.012-6.981 1.039 1.039z" transform="translate(-1.443 -0.001)"/>
        <path id="Path_37" d="M451.988-578.382h-15.819V-594.2h15.819zm-14.349-1.47h12.879v-12.879h-12.879z" transform="translate(-2.128 -0.446)"/>
    </g>
</svg>
