<svg xmlns="http://www.w3.org/2000/svg" width="35" height="35" viewBox="0 0 35 35">
    <defs>
        <clipPath id="clip-path">
            <path d="M0 0H35V35H0z" class="cls-1"/>
        </clipPath>
        <style>
            .cls-1{fill:none}
        </style>
    </defs>
    <g id="Bank_Tosee_Taavon_Color" clip-path="url(#clip-path)">
        <path id="Boundary" d="M0 0H35V35H0z" class="cls-1"/>
        <path id="Shape" fill="#ccc" d="M27.239-25.02a5.285 5.285 0 0 0-5.253-5.289 5.262 5.262 0 0 0-5.286 5.253 5.309 5.309 0 0 0 5.253 5.289 5.216 5.216 0 0 0 5.286-5.253z" transform="translate(-4.617 43.108)"/>
        <path id="Shape-2" fill="#50b4d0" fill-rule="evenodd" d="M15.946-23.029a7.323 7.323 0 0 1-3.028-1.459.992.992 0 0 0-1.277.036L6.389-19.6a.665.665 0 0 0-.109.8l1.933 3.648a3.209 3.209 0 0 0 3.392 1.6l4.085-.729a.741.741 0 0 0 .547-.62l.511-7.076a1 1 0 0 0-.802-1.052zm7.186-1.5a1.043 1.043 0 0 0-1.313-.036 6.824 6.824 0 0 1-2.991 1.5 1 1 0 0 0-.8 1.058l.584 7.076a.7.7 0 0 0 .584.584l4.085.693a3.157 3.157 0 0 0 3.356-1.678l1.9-3.648a.72.72 0 0 0-.109-.839zM11.2-26.714a6.687 6.687 0 0 1-.766-3.064v-.146a.963.963 0 0 0-.834-1.021l-7-1.094a.743.743 0 0 0-.693.4L.261-27.881A3.2 3.2 0 0 0 1.1-24.2l3.064 2.7a.662.662 0 0 0 .836.075l5.839-3.975a1.079 1.079 0 0 0 .361-1.314zm23.236-1.24L32.8-31.711a.6.6 0 0 0-.693-.4l-7 1.131a.963.963 0 0 0-.839 1.021v.219a6.66 6.66 0 0 1-.73 3.064.97.97 0 0 0 .328 1.24l5.873 3.976a.662.662 0 0 0 .839-.073l3.064-2.736a3.145 3.145 0 0 0 .798-3.685zM3.07-34.009l6.785 1.97a1.032 1.032 0 0 0 1.2-.511 6.788 6.788 0 0 1 2.079-2.663 1.006 1.006 0 0 0 .219-1.277l-3.572-6.127a.712.712 0 0 0-.766-.292L5.04-41.778a3.211 3.211 0 0 0-2.262 2.955L2.632-34.7a.7.7 0 0 0 .438.691zm18.457-1.24a6.607 6.607 0 0 1 2.079 2.626 1.1 1.1 0 0 0 1.24.547l6.748-2.043a.713.713 0 0 0 .474-.693l-.146-4.122a3.2 3.2 0 0 0-2.334-2.918l-3.976-1.094a.671.671 0 0 0-.766.292l-3.575 6.165a1.084 1.084 0 0 0 .256 1.24zm-6.967-1.824a.95.95 0 0 0 1.131.584 8.752 8.752 0 0 1 1.678-.182 6.221 6.221 0 0 1 1.678.219 1 1 0 0 0 1.167-.62l2.626-6.6a.674.674 0 0 0-.255-.766l-3.319-2.444a3.119 3.119 0 0 0-3.757 0l-3.319 2.407a.692.692 0 0 0-.255.8z" transform="translate(0 47.866)"/>
    </g>
</svg>
