<svg xmlns="http://www.w3.org/2000/svg" width="35" height="35" viewBox="0 0 35 35">
    <defs>
        <clipPath id="clip-path">
            <path d="M0 0H35V35H0z" class="cls-1"/>
        </clipPath>
        <style>
            .cls-1{fill:none}
        </style>
    </defs>
    <g id="Bank_Noor_Color" clip-path="url(#clip-path)">
        <path id="Boundary" d="M0 0H35V35H0z" class="cls-1"/>
        <path id="Shape" fill="#002263" d="M21.428 19.688h-9.264a.714.714 0 0 1-.508-.211.723.723 0 0 1-.21-.508v-.854a.718.718 0 0 1 .718-.719h9.264a.718.718 0 0 1 .718.719v.854a.718.718 0 0 1-.718.719zm.522-3.26a55.3 55.3 0 0 0-4.83-9.141v-.005a31.688 31.688 0 0 1 6.579-5.6C26.3.218 29.83 0 31.7 0c.9 0 1.473.049 1.478.05a14.135 14.135 0 0 0-2.606 1.183 14.163 14.163 0 0 0-4.655 4.186 24.887 24.887 0 0 0-2.871 6.762c-.7 2.338-1.09 4.226-1.094 4.244zm-1.32-.08h-9.163a11.06 11.06 0 0 1-1.746-4C9.036 8.965 8.155 6.567 7.1 5.22 4.708 2.149.047.2 0 .182h.015A14.8 14.8 0 0 1 2.06.05c2.915 0 8.368.708 12.133 5.45 2.606 3.285 6.4 10.768 6.437 10.842z" transform="translate(0.911 15.313)"/>
        <path id="Shape-2" fill="#0bbbb9" d="M14.583 19.688a4.458 4.458 0 1 1 4.387-4.458 4.428 4.428 0 0 1-4.387 4.458zm-5.9-5.594a36.743 36.743 0 0 1-7.328-.545 1.85 1.85 0 0 1-1.288-2.26A1.828 1.828 0 0 1 1.821 9.92a1.763 1.763 0 0 1 .473.063 20.353 20.353 0 0 1 3.625 1.578c1.313.685 2.61 1.439 3.465 1.939a6.069 6.069 0 0 0-.154.588h-.551zm11.868 0h-.61a5.01 5.01 0 0 0-.154-.588 39.861 39.861 0 0 1 7.091-3.521 1.739 1.739 0 0 1 .47-.063h.018a1.848 1.848 0 0 1 .455 3.628 36.372 36.372 0 0 1-7.274.543zM9.873 12.407a38.967 38.967 0 0 1-7.286-3.079 1.863 1.863 0 0 1-.5-2.56 1.807 1.807 0 0 1 2.527-.509 39.329 39.329 0 0 1 5.6 5.641 5.3 5.3 0 0 0-.334.507zm9.393-.048a5.711 5.711 0 0 0-.337-.5A40.743 40.743 0 0 1 24.513 6.2a1.8 1.8 0 0 1 1.014-.313 1.816 1.816 0 0 1 1.515.816 1.863 1.863 0 0 1-.5 2.561 38.977 38.977 0 0 1-7.279 3.1zm-8.238-1.351a40.648 40.648 0 0 1-5.9-5.3 1.864 1.864 0 0 1 .345-2.587 1.807 1.807 0 0 1 2.553.349 39.922 39.922 0 0 1 3.483 7.169 5.689 5.689 0 0 0-.479.373zm7.081-.026a5.94 5.94 0 0 0-.474-.364 40.068 40.068 0 0 1 3.495-7.185 1.806 1.806 0 0 1 2.554-.347 1.863 1.863 0 0 1 .343 2.587 39.389 39.389 0 0 1-5.915 5.309zm-1.491-.912a5.618 5.618 0 0 0-.576-.2 41.478 41.478 0 0 1 1.027-7.916A1.823 1.823 0 0 1 18.8.7a1.793 1.793 0 0 1 .581.1 1.854 1.854 0 0 1 1.146 2.338 39.9 39.9 0 0 1-3.9 6.937zm-4.069 0a40.028 40.028 0 0 1-3.907-6.936A1.855 1.855 0 0 1 9.788.8a1.786 1.786 0 0 1 .58-.1A1.824 1.824 0 0 1 12.1 1.956a40.2 40.2 0 0 1 1.028 7.916 5.362 5.362 0 0 0-.575.2zm1.729-.389a40.268 40.268 0 0 1-1.516-7.834 1.822 1.822 0 1 1 3.643 0 40.191 40.191 0 0 1-1.517 7.833c-.1-.005-.2-.008-.3-.008s-.208 0-.3.009z" transform="translate(2.917 0)"/>
    </g>
</svg>
