<svg xmlns="http://www.w3.org/2000/svg" width="35" height="35" viewBox="0 0 35 35">
    <defs>
        <clipPath id="clip-path">
            <path d="M0 0H35V35H0z" class="cls-1"/>
        </clipPath>
        <style>
            .cls-1{fill:none}
        </style>
    </defs>
    <g id="Bank_Saman_Color" clip-path="url(#clip-path)">
        <path id="Boundary" d="M0 0H35V35H0z" class="cls-1"/>
        <path id="Shape" fill="#7dcdf1" d="M11.985 5.9a34.472 34.472 0 0 1 5.4-5.9 11.838 11.838 0 0 1 2.665 5.4 27.852 27.852 0 0 1 5-2.188c1.179-.4 2.4-.738 3.621-1.037a23.193 23.193 0 0 1-1.859 8.261 22.013 22.013 0 0 1 8.188 2 34.8 34.8 0 0 1-6.789 6.864 13.663 13.663 0 0 1 3.775 5.5 32.409 32.409 0 0 1-8 2.4 11.068 11.068 0 0 1-.535 5.275c-.878-.073-1.745-.173-2.579-.309a17.839 17.839 0 0 1-3.534-.9 9.9 9.9 0 0 1-2.684 3.324 16.058 16.058 0 0 1-3.637-2.933 8.7 8.7 0 0 1-3.271 1.328 12.81 12.81 0 0 1-1.6-3.466 6.8 6.8 0 0 1-1.946-.078 10.465 10.465 0 0 1-1.16-.259 11.418 11.418 0 0 1-.011-3.439 8.6 8.6 0 0 1-2.6-1.724 10.479 10.479 0 0 1 1.322-3.091A11.417 11.417 0 0 1 0 17.841a9.565 9.565 0 0 1 2.565-2.367l-.008-.031a17.127 17.127 0 0 1-.365-4.461 11.457 11.457 0 0 1 1.349-.556 7.074 7.074 0 0 1 2.336-.4 25.785 25.785 0 0 1 1.949-5.754A8.16 8.16 0 0 1 11.985 5.9z" transform="translate(0 0.182)"/>
        <path id="Shape-2" fill="#00aae7" d="M12.612 4.929a26.963 26.963 0 0 1 3.152-3.156A16.472 16.472 0 0 1 18.3 0a8.945 8.945 0 0 1 .1 2.559 19.824 19.824 0 0 1-.9 4.147 25.123 25.123 0 0 1 4.469-1.391 13.479 13.479 0 0 1 3.1-.279 14.861 14.861 0 0 1-1.633 2.773 26.926 26.926 0 0 1-3.236 3.6 17.88 17.88 0 0 1 4.02 1.123 8.736 8.736 0 0 1 2.248 1.36 16.575 16.575 0 0 1-2.762 1.627 25.661 25.661 0 0 1-4.259 1.526 12.644 12.644 0 0 1 2.094 2.749 6.3 6.3 0 0 1 .7 1.991 12.864 12.864 0 0 1-2.624.1 19.2 19.2 0 0 1-3.637-.6 10.6 10.6 0 0 1 .086 2.9 5.48 5.48 0 0 1-.473 1.671 9.209 9.209 0 0 1-1.792-.905 13.923 13.923 0 0 1-2.269-1.867A9.472 9.472 0 0 1 10.3 25.23a4.771 4.771 0 0 1-1.04 1 6.859 6.859 0 0 1-.914-1.32 11.473 11.473 0 0 1-.911-2.3 8.211 8.211 0 0 1-1.832 1.144A4.185 4.185 0 0 1 4.4 24.1a5.924 5.924 0 0 1-.2-1.381 10.4 10.4 0 0 1 .2-2.223 7.46 7.46 0 0 1-1.974.115 4.009 4.009 0 0 1-1.154-.271 5.577 5.577 0 0 1 .373-1.249 9.326 9.326 0 0 1 1.078-1.831 7.759 7.759 0 0 1-1.788-.889A4.706 4.706 0 0 1 0 15.523a4.973 4.973 0 0 1 .851-.972 8.384 8.384 0 0 1 1.759-1.163 9.96 9.96 0 0 1-1.271-1.894 6.6 6.6 0 0 1-.528-1.425 4.363 4.363 0 0 1 1.245-.5 7.534 7.534 0 0 1 2.2-.144 14.687 14.687 0 0 1-.307-2.848 9.935 9.935 0 0 1 .179-1.964 4.033 4.033 0 0 1 1.457.288 7.928 7.928 0 0 1 2.139 1.312 22.048 22.048 0 0 1 1.234-3.476A14.656 14.656 0 0 1 10.231.493a5.045 5.045 0 0 1 1.2 1.42 11.813 11.813 0 0 1 1.18 3.015z" transform="translate(1.754 5.587)"/>
        <path id="Shape-3" fill="#006fba" d="M7.3 4.213c-.017.038.017.038 0 0A17.929 17.929 0 0 1 10 0a12.2 12.2 0 0 1 .232 4.523.059.059 0 0 0-.012.082l.012-.082a18.449 18.449 0 0 1 4.644-2.746 17.221 17.221 0 0 1-2.424 4.758c.3-.059.6-.106.907-.145a15.326 15.326 0 0 1 4.216.09 18.692 18.692 0 0 1-4.5 3.145 11.162 11.162 0 0 1 3.75 2.49 16.722 16.722 0 0 1-4.053.561c-.29 0-.571-.009-.843-.028a9.478 9.478 0 0 1 1.433 3.7 12.02 12.02 0 0 1-3.78-1.712 8.948 8.948 0 0 1-.668 3.51A9.969 9.969 0 0 1 6.882 15.2c.013-.024-.018-.04 0 0a8.314 8.314 0 0 1-2.054 2.486 9.3 9.3 0 0 1-.317-3.245 7.3 7.3 0 0 1-2.72 1.121 8.785 8.785 0 0 1 1.118-2.885c.032 0 .023-.037 0 0-.185.017-.369.026-.556.026a6.827 6.827 0 0 1-2.238-.377 8.053 8.053 0 0 1 2.21-2.039A7.311 7.311 0 0 1 0 8.459a7.292 7.292 0 0 1 2.316-.705c.193-.025.388-.039.582-.044.021.033.041 0 0 0A9.605 9.605 0 0 1 1.643 4.5a6.732 6.732 0 0 1 2.992.97c0 .037.032.02 0 0a13.841 13.841 0 0 1 .479-4.187A8.161 8.161 0 0 1 7.3 4.21z" transform="translate(4.365 10.516)"/>
        <path id="Shape-4" fill="#fff" d="M7.912.293V.31a10.649 10.649 0 0 0-2.32 2.609A7.183 7.183 0 0 0 4.972 0a9.345 9.345 0 0 0-.825 3.1 5.505 5.505 0 0 0-1.836-1.841 7.1 7.1 0 0 0 .643 2.7A5.142 5.142 0 0 0 .574 3.5c-.01-.015-.029-.013-.055 0h.055a5.554 5.554 0 0 0 1.715 1.75A5.711 5.711 0 0 0 0 6.077a5.143 5.143 0 0 0 2.27.538A6.447 6.447 0 0 0 .585 8.467a5.665 5.665 0 0 0 2.294-.708 6.728 6.728 0 0 0-.692 2.473 6.415 6.415 0 0 0 1.8-1.811 6.6 6.6 0 0 0 .576 2.57 6.705 6.705 0 0 0 .789-2.575 6.732 6.732 0 0 0 1.912 2.005 6.509 6.509 0 0 0-.621-2.736 7.732 7.732 0 0 0 2.969.75 6.683 6.683 0 0 0-2.131-2.058 9.579 9.579 0 0 0 3.27-.964 7.907 7.907 0 0 0-3.172-.575 10.6 10.6 0 0 0 2.552-2.515 9.83 9.83 0 0 0-3.26 1.228A9.5 9.5 0 0 0 7.91.31s.005-.01.002-.017z" transform="translate(6.689 14.728)"/>
    </g>
</svg>
