<svg xmlns="http://www.w3.org/2000/svg" width="35" height="35" viewBox="0 0 35 35">
    <path fill="none" d="M0 0H35V35H0z"/>
    <path fill="#8f2426" d="M31.421 32.084H0V13.161h5.115v13.9h21.191v-8H26.3a8.694 8.694 0 0 1-8.7-8.666 8.54 8.54 0 0 1 .693-3.384l7.951 6.01v-5.06L20.7 3.77a8.679 8.679 0 0 1 13.326 10.61 8.775 8.775 0 0 1-2.6 3.015v-4.234h-5.12v5.9a8.648 8.648 0 0 0 5.115-1.664v14.686zM5.177 13.019V7.961L15.711 0 20.7 3.77a8.771 8.771 0 0 0-2.406 3.238l-2.58-1.95-10.536 7.96z" transform="translate(0 1.458)"/>
</svg>
