<svg xmlns="http://www.w3.org/2000/svg" width="35" height="35" viewBox="0 0 35 35">
    <defs>
        <clipPath id="clip-path">
            <path d="M0 0H35V35H0z" class="cls-1"/>
        </clipPath>
        <style>
            .cls-1{fill:none}
        </style>
    </defs>
    <g id="Bank_Eghtesad_Novin_Color" clip-path="url(#clip-path)">
        <path id="Boundary" d="M0 0H35V35H0z" class="cls-1"/>
        <path id="Shape" fill="#662891" fill-rule="evenodd" d="M29.531-23.937A5.471 5.471 0 0 1 35-18.469 5.471 5.471 0 0 1 29.531-13a5.471 5.471 0 0 1-5.469-5.469 5.471 5.471 0 0 1 5.469-5.468zm-4.639-23.757a.388.388 0 0 1 .379-.306h9.582a.147.147 0 0 1 .124.068.147.147 0 0 1 .008.142L18.539-13.207a.363.363 0 0 1-.328.207h-.405a.363.363 0 0 1-.283-.135.364.364 0 0 1-.072-.305zm-5.526 0a.388.388 0 0 1 .379-.306h2.908a.387.387 0 0 1 .3.145.389.389 0 0 1 .077.326l-7.436 34.243a.363.363 0 0 1-.355.286H12.28a.363.363 0 0 1-.28-.135.364.364 0 0 1-.072-.305zm-2.912-.084A.388.388 0 0 1 16.8-48h.3a.387.387 0 0 1 .3.145.388.388 0 0 1 .077.326l-7.429 34.243a.363.363 0 0 1-.355.286H.147a.147.147 0 0 1-.124-.068.147.147 0 0 1-.008-.142zM5.469-48a5.471 5.471 0 0 1 5.469 5.469 5.471 5.471 0 0 1-5.469 5.469A5.471 5.471 0 0 1 0-42.531 5.471 5.471 0 0 1 5.469-48z" transform="translate(0 48)"/>
    </g>
</svg>
