<svg xmlns="http://www.w3.org/2000/svg" width="35" height="35" viewBox="0 0 35 35">
    <defs>
        <linearGradient id="linear-gradient" x1=".086" x2=".912" y1=".501" y2=".501" gradientUnits="objectBoundingBox">
            <stop offset="0" stop-color="#ece482"/>
            <stop offset="1" stop-color="#d8ac4e"/>
        </linearGradient>
        <clipPath id="clip-path">
            <path d="M0 0H35V35H0z" class="cls-1"/>
        </clipPath>
        <style>
            .cls-1{fill:none}
        </style>
    </defs>
    <g id="Bank_Keshavarzi_Color" clip-path="url(#clip-path)">
        <path id="Boundary" d="M0 0H35V35H0z" class="cls-1"/>
        <path id="Shape" fill="url(#linear-gradient)" fill-rule="evenodd" d="M20.2-13h-2.831v-2.145H16.08v-2.648l-5.7-.006.006-6.747H9.043v-.594H7.376v-.907H6.334V-27.4h1.042v-1.189H9l-.467-.719H5.824c-.376 0-.622.467-.622.467l-.464-.142a3.252 3.252 0 0 1 .179-.56c.073-.206.239-.611.239-.611l.022-.054c.037-.089.075-.177.117-.263a2.543 2.543 0 0 1 1.1-1.236 1.583 1.583 0 0 1 .205-.082 1.622 1.622 0 0 1 .388-.071h.12l.011-.027.017-.039a1.408 1.408 0 0 1 .184-.3 1.305 1.305 0 0 1 .161-.166 1.776 1.776 0 0 1 .81-.415l-.011-2.54h1.366l-.006-1.788 1.337-.008v-1.2h.814l-.945-1.637H9.582L11.7-42.1h3.639v-4.01H17.4V-48h2.776v1.895h2.054v4.01h3.639l2.115 2.12h-1.268l-.945 1.637h.814v1.2l1.337.008-.006 1.792h1.366l-.014 2.534a1.776 1.776 0 0 1 .81.415 1.305 1.305 0 0 1 .161.166 1.408 1.408 0 0 1 .184.3l.017.039.011.027h.12a1.622 1.622 0 0 1 .388.071 1.583 1.583 0 0 1 .205.082 2.543 2.543 0 0 1 1.1 1.236c.042.087.08.175.117.263l.022.054s.166.405.239.611a3.252 3.252 0 0 1 .179.56l-.464.142s-.246-.466-.622-.467h-2.697l-.467.719h1.62v1.186h1.042v1.352h-1.044v.907h-1.655v.594h-1.343l.006 6.747-5.7.006v2.648H20.2z" transform="translate(-1.283 48)"/>
        <path id="Shape-2" fill="#1f261a" fill-rule="evenodd" d="M19.958-13.367h-1.64v-2.145h-1.287v-2.07h1.289v1.187h1.635v-1.187h1.289v2.07h-1.286zm6.978-4.8H11.34v-6.487h15.6zm-2.568-.779a.211.211 0 0 1-.008.108.771.771 0 0 1-.057.13.483.483 0 0 1-.107.133.116.116 0 0 1-.068.04.188.188 0 0 1-.07-.045q-.048-.04-.1-.078a.766.766 0 0 1-.076-.063.081.081 0 0 1-.031-.05l.047-.1q.052-.111.078-.161.047-.075.094-.155l.031-.045a.211.211 0 0 0 .031.025l.042.025a.993.993 0 0 1 .146.13.226.226 0 0 1 .047.105zm-3.905-.723a3.551 3.551 0 0 0 .7-.068 4.319 4.319 0 0 0 .6-.163 2.085 2.085 0 0 0 .5-.261 1.969 1.969 0 0 0 .391-.356l.146-.191c.031-.043.054-.074.068-.09s.017-.014.021-.01a.028.028 0 0 1 .005.02l-.005.055-.023.193a2.174 2.174 0 0 0-.018.261.965.965 0 0 0 .065.381.237.237 0 0 0 .237.15q.11 0 .214-.163a1.476 1.476 0 0 0 .172-.459l.013-.065a.354.354 0 0 0 .008-.06c0-.033-.009-.05-.026-.05s-.025.015-.034.045l-.024.08q-.057.155-.13.155a.284.284 0 0 1-.162-.045.325.325 0 0 1-.115-.286v-.075q0-.09.016-.268.018-.2.047-.394l.11-.526.015-.078.122-.083.487-.369q.21-.135.417-.273.18-.12.354-.246.282-.206.422-.313.188-.143.266-.21t.154-.141q.094-.09.18-.186a1.62 1.62 0 0 0 .141-.188.71.71 0 0 0 .1-.188.078.078 0 0 0 .01-.04q0 .009-.391.331-.2.172-.412.34-.224.178-.459.345-.332.232-.667.461a6.8 6.8 0 0 0-.617.494.634.634 0 0 0-.12.139.285.285 0 0 0-.017.027 1.186 1.186 0 0 0-.064.124l-.023.046a1.967 1.967 0 0 0-.115.256l-.073.286a1.239 1.239 0 0 1-.172.371 1.252 1.252 0 0 1-.4.346 3.2 3.2 0 0 1-1.4.4q-.177.015-.474.015a1.011 1.011 0 0 1-.683-.15.287.287 0 0 1-.076-.173c-.005-.065-.013-.1-.023-.1q-.042 0-.065.17a2.441 2.441 0 0 0-.023.331.423.423 0 0 0 .081.283.524.524 0 0 0 .3.133 2.141 2.141 0 0 0 .365.025zm-5.355-1.356a1.266 1.266 0 0 1-.026.2q-.026.14-.052.246l-.063.246c-.035.093-.062.162-.083.206a1.541 1.541 0 0 1-.086.155.374.374 0 0 1-.081.093.914.914 0 0 1-.141.083l-.188.075a1.036 1.036 0 0 1-.123.03.832.832 0 0 1-.122.02c-.017 0-.028-.006-.031-.018a.053.053 0 0 1 .01-.042.532.532 0 0 1 .133-.125q.107-.08.211-.155.12-.106.177-.166a1.121 1.121 0 0 0 .156-.205.652.652 0 0 0 .044-.1l.091-.253.066-.183q.011-.04.031-.1c.014-.038.031-.058.052-.058a.109.109 0 0 1 .026.05zm3.813.568q.109-.107.13-.132a.765.765 0 0 0 .13-.207 1.565 1.565 0 0 0 .091-.327 1.861 1.861 0 0 0 .039-.315v-.275q0-.143.018-.3c0-.091.005-.148.005-.171v-.012l.041-.025.154-.105.373-.252q.217-.141.432-.284.187-.125.368-.258.293-.216.439-.329.2-.151.277-.222t.162-.15q.1-.1.19-.2a1.8 1.8 0 0 0 .151-.2.828.828 0 0 0 .109-.205.1.1 0 0 0 .013-.045q0 .01-.409.351-.213.182-.43.36-.233.188-.478.362-.345.243-.692.482a5.231 5.231 0 0 0-.51.386.7.7 0 0 0-.127.149 1.32 1.32 0 0 0-.092.17l-.009.021-.177.409a.362.362 0 0 0-.026.129q-.005.085-.005.2l.005.327a.759.759 0 0 1-.052.312.486.486 0 0 1-.06.1.235.235 0 0 1-.06.056l-.031.015a.152.152 0 0 1-.073-.01c-.017.026-.035.05-.052.073a.225.225 0 0 1-.109.078.053.053 0 0 1-.063-.01l-.068.068a.186.186 0 0 1-.125.059.911.911 0 0 1-.141-.01q-.115.078-.224.156a.369.369 0 0 1-.208.059.339.339 0 0 1-.313-.151.47.47 0 0 1-.057-.249c0-.039 0-.1.01-.19q.013-.157.036-.312l.089-.595.021-.127a.231.231 0 0 0 .005-.078l-.021.01q-.047.093-.125.273t-.083.2q-.036.239-.094.69t-.058.51a1.155 1.155 0 0 0 .011.134.54.54 0 0 0 .026.124.337.337 0 0 0 .328.258.416.416 0 0 0 .344-.215q.146-.214.235-.215l.076.007a.229.229 0 0 0 .06 0 .313.313 0 0 0 .1-.063.9.9 0 0 1 .094-.071.176.176 0 0 1 .07-.022.141.141 0 0 0 .063-.02c.028-.026.051-.046.07-.061a.264.264 0 0 1 .057-.034l.117-.056.031-.024zm-4.314-1.963a.036.036 0 0 0-.005-.033.107.107 0 0 0-.036-.028.592.592 0 0 0-.182.071 1.612 1.612 0 0 0-.193.116q-.1.069-.162.121a2.86 2.86 0 0 0-.266.269 1.8 1.8 0 0 0-.276.413.861.861 0 0 0-.1.347.22.22 0 0 0 .042.142.3.3 0 0 0 .12.085.4.4 0 0 0 .073.026l.1.028q.073.021.073.064a.317.317 0 0 1-.055.161 1 1 0 0 1-.159.191.9.9 0 0 1-.261.172 1.035 1.035 0 0 1-.433.094.69.69 0 0 1-.42-.111.355.355 0 0 1-.149-.3 1.563 1.563 0 0 1 .151-.539l.062-.132q.063-.132.094-.189c.038-.072.063-.124.076-.154l.049-.116a.108.108 0 0 0 .01-.052c0-.028-.012-.043-.036-.043s-.023.013-.039.038-.03.05-.044.076l-.12.232-.151.3a2.916 2.916 0 0 0-.162.383 1.631 1.631 0 0 0-.063.243 1.447 1.447 0 0 0-.021.248.776.776 0 0 0 .031.21.6.6 0 0 0 .11.21.571.571 0 0 0 .485.2.958.958 0 0 0 .506-.132 1.128 1.128 0 0 0 .214-.161 1.711 1.711 0 0 0 .172-.189 1.706 1.706 0 0 0 .235-.479 1.631 1.631 0 0 0 .089-.489.227.227 0 0 0-.083-.208.206.206 0 0 0-.055-.028l-.065-.024-.094-.043a.128.128 0 0 1-.037-.08.283.283 0 0 1 .071-.123 1.33 1.33 0 0 1 .211-.2.9.9 0 0 1 .214-.142.435.435 0 0 1 .167-.047.064.064 0 0 1 .034.012l.039.026c.021 0 .045-.019.073-.057.007-.009.027-.047.06-.111a1.643 1.643 0 0 0 .07-.151.611.611 0 0 0 .031-.111zm2.176 2.026l-.073.186a1.083 1.083 0 0 1-.112.188.5.5 0 0 1-.107.115.806.806 0 0 1-.156.068l-.11.04-.167.055a.723.723 0 0 1-.167.035l-.021-.01q0-.035.188-.15l.2-.14q.052-.035.115-.085a1.292 1.292 0 0 0 .133-.125.42.42 0 0 0 .1-.155.131.131 0 0 1 .005-.03l-.136.01a.222.222 0 0 1-.156-.058.14.14 0 0 1-.052-.128.433.433 0 0 1 .026-.1c.014-.037.045-.1.094-.2a1.141 1.141 0 0 1 .094-.16c.045-.06.089-.09.13-.09a.241.241 0 0 1 .182.085.294.294 0 0 1 .078.205.712.712 0 0 1-.011.12l-.018.105c-.005.03-.013.066-.023.108a.61.61 0 0 1-.036.108zM16-21.062a1.275 1.275 0 0 1-.026.2q-.026.14-.052.246l-.062.246q-.052.14-.083.206a1.555 1.555 0 0 1-.086.155.384.384 0 0 1-.081.093.927.927 0 0 1-.141.083l-.188.075a1.037 1.037 0 0 1-.122.03.827.827 0 0 1-.123.02c-.017 0-.028-.006-.031-.018a.052.052 0 0 1 .011-.042.527.527 0 0 1 .133-.125l.211-.155q.12-.105.177-.166a1.122 1.122 0 0 0 .156-.205.66.66 0 0 0 .044-.1l.091-.253.063-.18c.007-.027.018-.059.031-.1s.031-.058.052-.058a.11.11 0 0 1 .026.048zm8.072.4c0-.04 0-.105.01-.2q.013-.161.036-.321l.089-.612.021-.13a.236.236 0 0 0 .005-.08l-.021.01q-.047.1-.125.281t-.087.206q-.037.246-.094.709t-.057.522a.965.965 0 0 0 .065.381.237.237 0 0 0 .237.15q.109 0 .214-.163a1.476 1.476 0 0 0 .172-.459l.013-.065a.354.354 0 0 0 .008-.06c0-.033-.009-.05-.026-.05s-.025.015-.034.045l-.023.08q-.057.155-.13.155a.284.284 0 0 1-.162-.045.325.325 0 0 1-.115-.286v-.075zm-8.724-1.493a.212.212 0 0 1-.008.108.786.786 0 0 1-.058.13.482.482 0 0 1-.107.133.115.115 0 0 1-.068.04.185.185 0 0 1-.07-.045q-.048-.04-.1-.078a.756.756 0 0 1-.075-.063.081.081 0 0 1-.031-.05l.047-.1.078-.16c.031-.05.062-.1.094-.155l.031-.045a.218.218 0 0 0 .031.025l.042.025a.98.98 0 0 1 .146.13.226.226 0 0 1 .046.102zm2.733-.667a.227.227 0 0 0-.047-.105.984.984 0 0 0-.146-.13l-.042-.025a.2.2 0 0 1-.031-.025l-.031.045q-.047.08-.094.156-.026.05-.078.16l-.047.1a.082.082 0 0 0 .031.05.768.768 0 0 0 .076.063q.051.037.1.078a.182.182 0 0 0 .07.045.115.115 0 0 0 .068-.04.485.485 0 0 0 .107-.133.776.776 0 0 0 .057-.13.212.212 0 0 0 .008-.108zm.537-.03a.212.212 0 0 1-.008.108.777.777 0 0 1-.057.13.478.478 0 0 1-.107.133.115.115 0 0 1-.068.04.187.187 0 0 1-.07-.045q-.048-.04-.1-.078a.757.757 0 0 1-.076-.063.082.082 0 0 1-.031-.05l.047-.1q.038-.081.078-.16t.094-.155l.031-.045a.193.193 0 0 0 .031.025l.042.025a.99.99 0 0 1 .146.13.227.227 0 0 1 .045.102zm4.789-.037a.214.214 0 0 1-.008.108.771.771 0 0 1-.058.131.485.485 0 0 1-.107.133.115.115 0 0 1-.068.04.186.186 0 0 1-.07-.045q-.048-.04-.1-.078a.723.723 0 0 1-.076-.063.081.081 0 0 1-.031-.05l.047-.1.078-.16c.031-.05.063-.1.094-.156l.031-.045a.212.212 0 0 0 .031.025l.042.025a.968.968 0 0 1 .146.131.224.224 0 0 1 .042.101zm-5.06-.584a.226.226 0 0 0-.047-.105.956.956 0 0 0-.146-.13l-.042-.025a.2.2 0 0 1-.031-.025l-.031.045-.094.155c-.017.033-.044.087-.078.16l-.047.1a.081.081 0 0 0 .031.05c.021.02.046.042.076.065l.1.078a.186.186 0 0 0 .07.043.115.115 0 0 0 .068-.04.482.482 0 0 0 .107-.133.783.783 0 0 0 .057-.13.213.213 0 0 0 .008-.108zm-2.458-17.858l.927 1.605v7.606l2.031 1.477v5.408h-2.366v-4.981l-2.33-2.33v-5.623l-1.364-2.362h-1.246l.8-.8zm-2.029 9.318l2.04 2.038v4.74h-1.917L11.1-29.674H6.047c.4-1.048 1.065-1.679 1.9-1.258.008-.666.249-1.081 1.374-1.082zm-3.08 2.922l2.507 3.856h-1.193l-2.5-3.856zm11.014 3.856h-2.365v-5.408l2.031-1.477v-7.606l.927-1.605h3.545l.8.8h-1.246l-1.364 2.362v5.623l-2.33 2.33zm5.385-4.439l-2.887 4.439h-1.914v-4.74l2.038-2.038h4.541c1.125 0 1.365.415 1.374 1.082.833-.421 1.5.21 1.9 1.258zm-2.191 4.439l2.512-3.856h1.188l-2.5 3.856zm-14.267-1.044h-1.4v-.664h.972zm18.235 0h-1.4l.431-.664h.972zm-9.031-19.026h2.057l.006 3.5-1.112 1.925v7.465l-1.447 1.053V-33.1l.519-.378v-10.779h-1.621v10.783l.519.378v1.731L17.4-32.417v-7.465l-1.112-1.925.006-3.5h2.057V-47.2h1.574zM11.8-32.6h.583v-1.739H11.8zm1.181 0h.583v-5.416l-1.117-1.935h-.661l1.2 2.07zm12.9 0h.583v-1.739h-.583zm-.6 0h-.583v-5.416l1.117-1.935h.661l-1.2 2.07z" transform="translate(-1.638 47.783)"/>
    </g>
</svg>
