<svg xmlns="http://www.w3.org/2000/svg" width="35" height="35" viewBox="0 0 35 35">
    <path fill="none" d="M0 0H35V35H0z"/>
    <path fill="#324c88" d="M11.87 33.642A1.327 1.327 0 1 1 13.2 35a1.346 1.346 0 0 1-1.33-1.358zm6.6-2.681a1.327 1.327 0 1 1 1.33 1.358 1.345 1.345 0 0 1-1.332-1.359zm-13.161 0a1.327 1.327 0 1 1 1.327 1.359 1.346 1.346 0 0 1-1.329-1.36zm5.272-4.04a2.547 2.547 0 1 1 2.546 2.608 2.582 2.582 0 0 1-2.548-2.609zm7.962-5.435a2.547 2.547 0 1 1 2.546 2.607 2.582 2.582 0 0 1-2.549-2.608zm-15.815 0a2.583 2.583 0 0 1 2.546-2.608 2.608 2.608 0 0 1 0 5.215 2.582 2.582 0 0 1-2.549-2.608zm6.526-4.04a3.91 3.91 0 1 1 3.909 4 3.965 3.965 0 0 1-3.911-4.001zm9.18-5.289a3.91 3.91 0 1 1 3.909 4 3.965 3.965 0 0 1-3.911-4.001zM0 12.083a3.964 3.964 0 0 1 3.909-4 4 4 0 0 1 0 8.006A3.964 3.964 0 0 1 0 12.083zM7.889 5.4A5.346 5.346 0 0 1 13.161 0a5.346 5.346 0 0 1 5.271 5.4 5.346 5.346 0 0 1-5.271 5.4 5.346 5.346 0 0 1-5.272-5.4z" transform="translate(4.375)"/>
</svg>
