<svg xmlns="http://www.w3.org/2000/svg" width="35" height="35" viewBox="0 0 35 35">
    <defs>
        <clipPath id="clip-path">
            <path d="M0 0H35V35H0z" class="cls-1"/>
        </clipPath>
        <style>
            .cls-1{fill:none}
        </style>
    </defs>
    <g id="Bank_Resalat_Color" clip-path="url(#clip-path)">
        <path id="Boundary" d="M0 0H34.998V35H0z" class="cls-1"/>
        <path id="Shape" fill="#00bbe6" d="M10.636 34.635a6.145 6.145 0 0 1-5.258-2.983 12.122 12.122 0 0 1-1.023-1.837 5.706 5.706 0 0 1-3.6-2.873c-1.771-3.038-.035-6.027 1.114-8C.075 22.679.618 24.526 1.1 25.295a2.492 2.492 0 0 0 2.24 1.12c.929 0 2.889-.352 5.576-2.711l9.056-9.068a4.656 4.656 0 0 1 3.2-1.389 3.76 3.76 0 0 1 .434.025 8.514 8.514 0 0 1 3.416 1.313 7.68 7.68 0 0 0 .785.426.875.875 0 0 0 .345.075.55.55 0 0 0 .467-.218.424.424 0 0 0 .026-.409 5.782 5.782 0 0 0-1.347-1.7c-2.229-2.233-4.981-4.852-5.008-4.878-1.542-1.484-2.247-2.9-2.156-4.333A3.953 3.953 0 0 1 21.682 0a1.832 1.832 0 0 0-.273 2.458l7.9 7.908a4.752 4.752 0 0 1 .924 3.915 3.021 3.021 0 0 1-2.26 2.2 2.116 2.116 0 0 1-.615.091 2.605 2.605 0 0 1-.729-.111 7.471 7.471 0 0 0-2.067-.338 3.33 3.33 0 0 0-2.43.909c-1.316 1.294-4.3 4.3-6.7 6.708-1.933 1.944-3.6 3.623-3.9 3.9A8.625 8.625 0 0 1 9.6 28.992a8.535 8.535 0 0 1-3.568.975 2.076 2.076 0 0 0 2.169 1.571c1.53 0 3.6-1.045 5.673-2.867l.2-.2 8.861-8.871a5.011 5.011 0 0 1 3.547-1.366h.085a3.874 3.874 0 0 1 2.285.683 3.731 3.731 0 0 1 1.694 2.452 2.875 2.875 0 0 0-1.441-.48A2.966 2.966 0 0 0 27.088 22c-1.782 1.753-6.266 6.26-8.781 8.79a.64.64 0 0 0 .241.508 1.957 1.957 0 0 0 1.143.317 2 2 0 0 0 1.413-.5l6.948-6.956a4.716 4.716 0 0 1 3.392-1.438h.074a2.8 2.8 0 0 1 1.931.642A3.932 3.932 0 0 1 35 26.1a2.1 2.1 0 0 0-1.194-.472 2.44 2.44 0 0 0-1.6.927c-1.093 1.075-3.345 3.326-6.693 6.69a5.09 5.09 0 0 1-3.428 1.3 5.254 5.254 0 0 1-1.758-.306 6.158 6.158 0 0 1-2.655-2.518l-.115-.167a10.485 10.485 0 0 1-6.921 3.081zM5.789 20.679a2.819 2.819 0 1 1 1.351-5.293 2.814 2.814 0 1 1 1.119 1.121 2.82 2.82 0 0 1-2.47 4.172z" transform="translate(0.003 0.182)"/>
    </g>
</svg>
