<svg xmlns="http://www.w3.org/2000/svg" width="35" height="35" viewBox="0 0 35 35">
    <path fill="none" d="M0 0H35V35H0z"/>
    <path fill="#f29200" d="M0 27.37l13.1-10.257L0 23.7v-4.858l18.886-7.4a6.462 6.462 0 0 0 2.548 3.689L9.736 35H4.805L15.3 19.781 0 35zm34.965 7.55L27.081 16a6.466 6.466 0 0 0 3.777-3.192L35 15.282V17.6l-2.65-1.315L35 19.829v3.013l-4.232-3.926L35 26.213V35zM27.71 35l-2.654-12.723L24.883 35H20.94l.915-12.464L18.311 35h-4.776L21.8 15.373a6.453 6.453 0 0 0 4.793.759L31.57 35zM0 11.641l12.284-1.655L0 9.2V5.516l13.141 1.707L0 3.438V0h4.188l15.224 6.894a6.462 6.462 0 0 0-.612 4.154L0 16.1zm31.061.736a6.458 6.458 0 0 0 .05-4.911L35 6.525v1.7l-2.32.629 2.32.441V11l-1.832.072 1.832.674v2.284zM27.552 3.89L29.684 0h2.369l-2.5 4.085L33.317 0H35v1.8l-4.211 3.386L35 3.08v2.54l-4.035 1.512a6.458 6.458 0 0 0-3.413-3.242zM8.166 0h5.8l3.751 2.66L15.282 0h2.943L19.7 1.831 18.881 0h2.227l1.534 3.917A6.475 6.475 0 0 0 19.6 6.556zm13.887 0h1.879l.435 1.615L24.428 0h1.726l-.125 2.078L26.672 0H28.7l-1.452 3.776a6.463 6.463 0 0 0-4.279.015z"/>
</svg>
