<svg xmlns="http://www.w3.org/2000/svg" width="35" height="35" viewBox="0 0 35 35">
    <defs>
        <clipPath id="clip-path">
            <path d="M0 0H35V35H0z" class="cls-1"/>
        </clipPath>
        <style>
            .cls-1{fill:none}
        </style>
    </defs>
    <g id="Bank_Postbank_Color" clip-path="url(#clip-path)">
        <path id="Boundary" d="M0 0H35V35H0z" class="cls-1" transform="translate(0 0)"/>
        <path id="Shape" fill="#14763e" d="M19.7 0A17.555 17.555 0 1 1 1.487 10.352l.9 1.168.053.065a3.952 3.952 0 0 0 .376.381 2.464 2.464 0 0 0 .6.374 2.125 2.125 0 0 0 .391.123 6.991 6.991 0 0 0 1.64.09c.35-.016.6-.035.6-.035A4.035 4.035 0 0 1 9.8 14.149c.545.644 5.882 7.782 5.882 7.782l2.653-2.667s-2.228-2.852-3.216-4.13a24.965 24.965 0 0 0-2.394-2.869c-1.067-.9-3.427-1.01-3.967-1.1A6.042 6.042 0 0 1 5.58 9.692a6.727 6.727 0 0 1-.474-.543L3.4 7.045a17.725 17.725 0 0 1 1.418-1.7l1.84 2.381a10.382 10.382 0 0 0 .918 1.09 4.037 4.037 0 0 0 2.23 1.051c2.723.492 4.211.622 5.074 1.626 1.036 1.2 1.236 1.479 2.1 2.6.319.413 2.822 3.7 2.822 3.7l2.571-2.587s-1.646-2.129-2.6-3.391a11.242 11.242 0 0 0-1.755-1.976 5.487 5.487 0 0 0-3.151-.8 7.32 7.32 0 0 1-2.74-.615s-.455-.1-1.395-1.317-1.2-1.566-1.2-1.566L7.51 3.019A17.541 17.541 0 0 1 9.368 1.88l1.987 2.588.993 1.3C13.777 7.6 14.7 7.621 15.655 7.734c1.512.18 2.935.084 4.167 1.016a8.249 8.249 0 0 1 1.6 1.774c.774 1 2.442 3.179 2.442 3.179l2.573-2.588s-1.481-1.922-2.057-2.653a4.248 4.248 0 0 0-1-.864c-.768-.5-1.534-.656-3.5-.947S17.267 6.017 16.339 5c-.444-.488-.69-.834-.989-1.221L12.776.513a17.282 17.282 0 0 1 2.472-.507L17 2.437a6.364 6.364 0 0 0 2.61 2.318c1.8.8 3.157.616 4.388.935a4.77 4.77 0 0 1 .7.245 2.537 2.537 0 0 1 .892.71c.407.461.764.911.845 1.017l1.526 1.911 2.543-2.556s-.587-.753-1.053-1.344a2.281 2.281 0 0 0-.656-.646 2.535 2.535 0 0 0-.755-.31 9.448 9.448 0 0 0-1.74-.187c-2.293-.092-3.14-.275-4.6-2.029l-1.081-1.318z" transform="translate(0 0)"/>
    </g>
</svg>
