<svg xmlns="http://www.w3.org/2000/svg" width="35" height="35" viewBox="0 0 35 35">
    <defs>
        <clipPath id="clip-path">
            <path d="M0 0H35V35H0z" class="cls-1"/>
        </clipPath>
        <style>
            .cls-1{fill:none}
        </style>
    </defs>
    <g id="Bank_Mehr_Eghtesad_Color" clip-path="url(#clip-path)">
        <path id="Boundary" d="M0 0H35V35H0z" class="cls-1"/>
        <path id="Shape" fill="#029a4c" d="M13.622 31.135l9.685-9.735c2.847-2.863 7.7-1.68 9.537 2.5-1.926-.173-3.8-.472-5.4 1.155L17.484 35zM9.936 27.48L0 17.509l3.861-3.866 9.724 9.7c2.859 2.85 1.678 7.707-2.5 9.548.177-1.933.476-3.813-1.149-5.411zm11.479-15.826C18.556 8.8 19.737 3.946 23.91 2.105c-.171 1.929-.471 3.808 1.154 5.406L35 17.483l-3.861 3.866zM2.179 11.1c1.928.172 3.8.471 5.4-1.155L17.541 0 21.4 3.865 11.718 13.6a5.224 5.224 0 0 1-3.748 1.569A6.467 6.467 0 0 1 2.179 11.1z"/>
        <path id="Shape-2" fill="#eb8c30" d="M0 5.47a5.469 5.469 0 1 1 5.469 5.468A5.47 5.47 0 0 1 0 5.47" transform="translate(12.031 12.031)"/>
    </g>
</svg>
