<svg xmlns="http://www.w3.org/2000/svg" width="35" height="35" viewBox="0 0 35 35">
    <defs>
        <clipPath id="clip-path">
            <path d="M0 0H35V35H0z" class="cls-1"/>
        </clipPath>
        <style>
            .cls-1{fill:none}
        </style>
    </defs>
    <g id="Bank_Mellat_Color" clip-path="url(#clip-path)">
        <path id="Boundary" d="M0 0H35V35H0z" class="cls-1"/>
        <path id="Shape" fill="#ba0b22" d="M10.545 35a2.832 2.832 0 0 1-1.385-.363l-.047-.028-1.91-1.1-6.612-3.8A1.126 1.126 0 0 1 .13 29.3a1.241 1.241 0 0 1-.13-.625v-9.91a2.777 2.777 0 0 1 1.4-2.307l1.268-.728 2.417-1.388.11-.064v.127l-.007 12.067a.556.556 0 0 0 .07.267.386.386 0 0 0 .131.137.352.352 0 0 0 .183.049.594.594 0 0 0 .281-.087l6.016-3.456.056-.031.039.051.042.056.043.055.005.007.043.054.043.053.011.014.046.054.045.052.048.054.047.053.008.009.047.051.049.051a6.318 6.318 0 0 0 .7.635l.146.111.027.02.122.086.059.04.058.039.008.006.053.034.054.033.024.015.052.032.053.032.018.011.077.045.015.009.016.009.017.01.056.032.058.031h.008l.06.031.06.031h.007c.183.093.371.177.56.25l.112.043.09.033.021.007h.009l.064.022.064.022h.009l.058.018.058.018.03.01.057.016.058.016.022.006.056.015.058.015.034.009.051.012.05.012.051.011.046.01.045.01.06.012.044.009.043.009.047.009.051.009.051.009.039.006.054.009.053.008h.031c.124.017.251.03.379.039l.075.006h.782l.075-.005.08-.006.07-.006.077-.007.058-.007h.014l.083-.01.071-.01.073-.01.082-.014h.011l.058-.01.122-.022.028-.005.067-.014.07-.015.07-.016.049-.012.047-.011.051-.013.023-.006.072-.02.065-.018.087-.026.06-.018.038-.012.047-.015.067-.023.083-.029.064-.023.081-.03.068-.026.081-.032.064-.027.078-.033.068-.031.077-.035.066-.031.062-.031.011-.005h.008l.01-.005.05-.024.081-.043.013-.007.048-.025.07-.039.07-.039.071-.042.072-.043.071-.043.07-.045.066-.043.069-.047.068-.047.064-.045c.1-.074.185-.137.262-.2l.062-.05.061-.051.061-.051.06-.052c.055-.047.11-.1.169-.154l.032-.031.032-.032.057-.056.055-.056.026-.027.052-.055.015-.016.015-.016.056-.061.051-.057.052-.06.05-.058.048-.057.047-.059.007-.009.045-.058.046-.06.039-.053.057.033 4.428 2.543.11.064-.11.064L13.212 33.9l-1.268.728a2.812 2.812 0 0 1-1.399.372zm13.177 0a2.81 2.81 0 0 1-1.4-.374l-1.265-.726-2.417-1.392-.111-.064.111-.063 10.508-6.028a.559.559 0 0 0 .2-.194.38.38 0 0 0 .054-.182.341.341 0 0 0-.051-.185.583.583 0 0 0-.217-.2l-6.016-3.455-.056-.032.025-.059.028-.064.026-.065v-.009l.025-.064.024-.063.007-.017.024-.066.024-.065.024-.072.022-.068v-.011l.021-.066.02-.067a6.452 6.452 0 0 0 .2-.923l.023-.182c.007-.058.012-.121.018-.181l.006-.071v-.388V19.177c-.011-.2-.031-.407-.062-.608l-.018-.117-.021-.116v-.009l-.013-.066-.014-.066v-.01l-.013-.059-.014-.06-.007-.03-.013-.057-.014-.058-.006-.022-.015-.056-.015-.058-.01-.033-.014-.051-.015-.049-.014-.049-.014-.045-.014-.045-.019-.058-.014-.043-.014-.041-.016-.045-.018-.049-.018-.049-.014-.035-.02-.051-.02-.05-.012-.03c-.05-.121-.1-.235-.155-.347l-.033-.067-.032-.066-.01-.02-.021-.041-.022-.041-.031-.056-.033-.061-.006-.01-.033-.057-.032-.056v-.005l-.034-.058-.022-.035-.022-.036-.037-.058-.041-.065-.042-.062-.045-.066-.039-.057-.046-.063-.034-.046-.009-.012-.051-.067-.043-.056-.046-.058-.052-.064-.007-.009-.037-.046-.081-.094-.019-.021-.045-.051-.048-.051-.049-.052-.034-.036-.033-.035-.038-.037-.017-.016-.052-.053-.049-.047-.066-.064-.047-.042-.066-.059-.052-.047-.067-.056-.052-.044-.066-.054-.057-.045-.068-.053-.056-.043-.068-.051-.061-.044-.07-.049-.06-.041-.058-.038-.01-.007-.008-.005-.01-.007-.047-.03-.077-.049-.014-.008-.048-.028-.069-.041-.069-.041-.072-.041-.074-.041-.073-.039-.074-.038-.069-.037-.074-.036-.075-.035-.072-.033c-.1-.046-.2-.088-.3-.127l-.074-.029-.075-.027-.075-.027-.085-.028c-.076-.025-.148-.048-.22-.069l-.043-.012-.043-.012-.081-.022-.077-.02-.028-.007-.062-.015-.021-.005h-.043l-.081-.018-.071-.02-.078-.015-.077-.014-.077-.013-.075-.011h-.011l-.073-.01-.074-.01-.066-.007V7.836l.111.064 13.62 7.828 1.269.728a2.8 2.8 0 0 1 1.4 2.393v9.844a1.116 1.116 0 0 1-.134.606 1.253 1.253 0 0 1-.476.422l-8.627 4.955a2.84 2.84 0 0 1-1.309.324zM6.589 24.753V7.513a2.8 2.8 0 0 1 1.381-2.4l.048-.027 1.91-1.1 6.612-3.8A1.143 1.143 0 0 1 17.123 0h.012a1.26 1.26 0 0 1 .605.2l8.627 4.955a2.77 2.77 0 0 1 1.309 2.359v4.36l-.11-.063L17.064 5.77a.561.561 0 0 0-.264-.07.4.4 0 0 0-.186.045.344.344 0 0 0-.136.136.58.58 0 0 0-.064.285v6.975l-.064.009h-.005l-.07.009-.07.009h-.009l-.068.01-.067.01h-.018l-.07.012-.068.012-.071.013-.07.015h-.012l-.068.015-.069.016H15.6a6.309 6.309 0 0 0-.9.288l-.169.071-.166.075-.065.031-.063.031h-.009l-.055.028-.056.03-.025.013-.054.029-.054.03-.018.01-.077.045-.016.009-.015.009-.017.01-.056.033-.056.035h-.008l-.057.035-.057.037H13.6c-.169.109-.336.228-.5.356l-.035.028-.019.015-.039.031-.091.077-.007.005-.051.044-.05.045-.008.007-.045.041-.045.041-.022.021-.043.041-.043.041-.016.016-.042.041-.041.042-.025.026-.036.037-.035.037-.035.037-.031.034-.031.034-.041.046-.03.033-.029.033-.031.036-.033.039-.033.039-.024.03-.034.043-.033.041-.02.026c-.085.11-.158.21-.224.306l-.042.062-.041.061-.012.019-.025.039-.025.039-.033.054-.037.06-.006.01-.033.056-.012.021-.012.02-.014.026v.005l-.033.058-.02.037-.02.036-.031.061-.035.068-.033.068-.035.071-.03.064-.032.07-.023.052-.039.091-.027.066-.028.068-.016.04-.014.037v.011l-.021.055c-.012.031-.022.06-.031.088l-.01.029-.009.026-.022.065-.021.067-.021.068-.014.048-.014.047-.014.049-.007.023-.019.072-.016.065-.022.088-.014.062-.019.086-.014.069-.016.086-.012.067-.014.085-.011.072-.012.085-.009.07-.01.084-.008.074-.017.111-.006.072-.005.081V19.959l.005.082.007.083.007.077c.012.116.026.225.042.326l.012.079.014.077.014.079.016.078c.015.074.031.147.05.223l.011.043.011.043.021.081.021.075.016.054.016.054.006.021.007.021.026.079.024.073.026.075.026.072.026.071.027.07v.01l.027.068.03.069.027.06-.058.033L6.7 24.69l-.108.062z" transform="translate(0.365 0)"/>
        <path id="Shape-2" fill="#ffc730" d="M0 5.1A5.1 5.1 0 1 0 5.1 0 5.1 5.1 0 0 0 0 5.1z" transform="translate(12.396 14.377)"/>
    </g>
</svg>
