<svg xmlns="http://www.w3.org/2000/svg" width="35" height="35" viewBox="0 0 35 35">
    <defs>
        <clipPath id="clip-path">
            <path d="M0 0H35V35H0z" class="cls-1"/>
        </clipPath>
        <style>
            .cls-1{fill:none}
        </style>
    </defs>
    <g id="Bank_Standard_Chartered_Color" clip-path="url(#clip-path)">
        <path id="Boundary" d="M0 0H35V35H0z" class="cls-1"/>
        <path id="Shape" fill="#80b0d5" d="M4.2 34.668A4.287 4.287 0 0 1 0 30.6l4.341-2.622 6.767 3.061L6.793 33.8a4.965 4.965 0 0 1-2.593.868zm14.875-8.913l-6.818-3.061 1.162-.659c.94-.525 1.29-.861 1.29-1.239s-.231-.619-.881-.917l4.048 1.8c1.4.633 1.992 1.386 1.992 2.519a2.137 2.137 0 0 1-.791 1.562zM9.953 11.592L5.847 9.765c-1.334-.595-2.438-1.2-2.438-2.648a2.774 2.774 0 0 1 .472-1.576L12.845 0a4.145 4.145 0 0 1 2.119 3.539 4.327 4.327 0 0 1-2.4 3.9l-3.32 2.029c-.3.181-.69.472-.69.917 0 .49.723.879 1.4 1.206z" transform="translate(6.271 0)"/>
        <path id="Shape-2" fill="#a2d993" d="M5.969 15.933l-3.161-1.4-.185-.083C1.274 13.841 0 13.267 0 11.728a2.244 2.244 0 0 1 .639-1.7l6.843 3.048-1.7.982c-.489.3-.791.563-.791.917 0 .335.32.649.978.962zM15.436 7.9L8.592 4.844 16.547 0a4.178 4.178 0 0 1 2.133 3.526 4.255 4.255 0 0 1-2.413 3.9l-.83.478z" transform="translate(9.616 6.561)"/>
        <path id="Shape-3" fill="#086da9" d="M3.064 0A5.728 5.728 0 0 0 0 5.141c0 2.613 1.62 4.109 4.213 5.27l12.844 5.722c1.516.688 1.992 1.5 1.992 2.519a2.153 2.153 0 0 1-.792 1.563l.753-.478a5.063 5.063 0 0 0 2.63-4.585c0-2.805-1.841-4.343-4.111-5.36L5.03 4.224c-1.221-.545-2.438-1.158-2.438-2.648A2.786 2.786 0 0 1 3.064 0z" transform="translate(7.088 5.541)"/>
        <path id="Shape-4" fill="#35af3b" d="M20.442 18.42a28.078 28.078 0 0 0-5.8-3.277L4.316 10.52C1.721 9.35 0 7.79 0 5.165A5.188 5.188 0 0 1 2.808.364L3.381 0a2.248 2.248 0 0 0-.645 1.705c0 1.608 1.364 2.152 2.808 2.805l12.018 5.358c2.09.908 4 2.47 4 5.13a5.5 5.5 0 0 1-1.124 3.423" transform="translate(6.876 16.58)"/>
    </g>
</svg>
