<svg xmlns="http://www.w3.org/2000/svg" width="35" height="35" viewBox="0 0 35 35">
    <path fill="none" d="M0 0H35V35H0z" transform="translate(0)"/>
    <path fill="#008ba0" d="M28.4 18.229c-3.936-.02-7.664-2.838-10.486-5.324l1.615-1.614.053.046c1.873 1.605 4.667 4 7 4.442.171.015.344.026.516.026a.115.115 0 0 1 .033 0h.007a2.822 2.822 0 0 0-.012-5.643V5.115a7.367 7.367 0 0 0-3.947 1.311 16.719 16.719 0 0 0-1.765 1.312c-2.772 2.328-5.043 5.191-7.851 7.485-.454.371-.915.72-1.384 1.04-.345.235-.695.455-1.05.656a9.29 9.29 0 0 1-4.566 1.312 6.557 6.557 0 1 1 0-13.115 10.81 10.81 0 0 1 4.96 1.311 18.779 18.779 0 0 1 2.04 1.244l.1.068c.059.041.141.085.23.146l.47.319.009.007L13.128 10A11.711 11.711 0 0 0 6.59 7.4a4.214 4.214 0 0 0-3.711 2.148 4.261 4.261 0 0 0 0 4.289A4.188 4.188 0 0 0 6.532 15.8c5.565 0 8.732-6.948 11.41-10.688q.417-.583.872-1.127a13.566 13.566 0 0 1 1.313-1.37A9.964 9.964 0 0 1 27.077 0h.048v5.115h1.347a6.557 6.557 0 0 1 0 13.115zM27.13 15.8z" transform="translate(0 5.552)"/>
</svg>
