<svg xmlns="http://www.w3.org/2000/svg" width="35" height="35" viewBox="0 0 35 35">
    <defs>
        <clipPath id="clip-path">
            <path d="M0 0H35V35H0z" class="cls-1"/>
        </clipPath>
        <style>
            .cls-1{fill:none}
        </style>
    </defs>
    <g id="Bank_Caspian_Color" clip-path="url(#clip-path)">
        <path id="Boundary" d="M0 0H35V35H0z" class="cls-1"/>
        <path id="Shape" fill="#313c4c" d="M15.26 3.507a1.169 1.169 0 0 1-.366-.069 1.373 1.373 0 0 1-.339-.155 2.416 2.416 0 0 0 .663-.369 1.5 1.5 0 0 0 .358-.455 1.238 1.238 0 0 1-.786-.171 1.294 1.294 0 0 1 .177-.695.758.758 0 0 1 .272-.274.461.461 0 0 1 .328.144.851.851 0 0 1 .228.5h.288c.046 0 .117-.086.211-.255a2.037 2.037 0 0 1 .287-.429.683.683 0 0 1 .528.179.814.814 0 0 1 .15.543 1.228 1.228 0 0 1-.332.518.871.871 0 0 1-.6-.3c-.087.158-.188.239-.3.239h-.235a2.145 2.145 0 0 1-.534 1.048zm1.356-1.849a.363.363 0 0 0-.142.211.832.832 0 0 0 .507.281.649.649 0 0 0 0-.069.406.406 0 0 0-.365-.423zm-1.416.055c-.034 0-.07.03-.111.091a.413.413 0 0 0-.064.138c.014.041.061.072.144.1a.669.669 0 0 0 .18.026.428.428 0 0 0 .19-.038.747.747 0 0 0-.135-.2.29.29 0 0 0-.204-.117zM2.941 3.5a1.045 1.045 0 0 1-.349-.089 1.012 1.012 0 0 1-.313-.18 3.115 3.115 0 0 0 .609-.357.986.986 0 0 0 .373-.432.834.834 0 0 0-.348-.406l.26-.495a.993.993 0 0 1 .248.36 1.11 1.11 0 0 1 .108.424 1.5 1.5 0 0 1-.2.608 2.23 2.23 0 0 1-.39.567zm-2.2-.048A.839.839 0 0 1 .209 3.3.583.583 0 0 1 0 2.815a1.56 1.56 0 0 1 .1-.5 2.238 2.238 0 0 1 .2-.432h.018a.135.135 0 0 1 .123.068A1.1 1.1 0 0 0 .29 2.5c0 .3.2.448.6.448a2.915 2.915 0 0 0 .61-.085 2.066 2.066 0 0 0 .585-.209 1.4 1.4 0 0 0-.485-.179.554.554 0 0 1-.347-.18 1.519 1.519 0 0 1 .077-.371C1.514 1.3 1.8.98 2.177.98a.74.74 0 0 1 .295.063l-.228.495a.539.539 0 0 0-.2-.039c-.211 0-.382.151-.509.45.006.044.078.086.213.124l.369.1c.131.05.2.113.2.187a2.054 2.054 0 0 1-.16.685 2.777 2.777 0 0 1-1.42.408zm3.949-.119l-.3-.292.31-.278.292.289-.3.281zm3.3-.774v-.694A5.027 5.027 0 0 0 7.82.381L8.267 0a3.652 3.652 0 0 1 .049.68 10.559 10.559 0 0 1-.136 1.6l-.189.28zm6.048-.1a.338.338 0 0 1-.253-.117.465.465 0 0 1-.128-.255.442.442 0 0 1-.452.372c-.171 0-.307-.125-.4-.37-.124.246-.277.37-.452.37h-.1a.376.376 0 0 1-.277-.131.54.54 0 0 1-.14-.281.553.553 0 0 1-.144.274.426.426 0 0 1-.316.138c-.193 0-.318-.124-.371-.368-.1.243-.238.366-.412.366a.339.339 0 0 1-.264-.126.549.549 0 0 1-.115-.22.478.478 0 0 1-.434.348h-.1c-.21 0-.356-.178-.432-.529a1.113 1.113 0 0 1-.164.361.9.9 0 0 1-.761-.257c.048-.18.094-.331.131-.437a2.014 2.014 0 0 1 .639-.354 1.4 1.4 0 0 0-.062-.2l.217-.322a1.216 1.216 0 0 1 .146.481c.044.3.072.473.084.516.046.159.123.24.23.24H9.809a.3.3 0 0 0 .264-.158.553.553 0 0 0 .08-.29h.164a.53.53 0 0 0 .108.379.248.248 0 0 0 .182.07.3.3 0 0 0 .282-.175.594.594 0 0 0 .062-.274h.164a.832.832 0 0 0 .04.3.236.236 0 0 0 .239.148.326.326 0 0 0 .3-.177.563.563 0 0 0 .072-.278h.164a.527.527 0 0 0 .11.377.277.277 0 0 0 .205.077h.055-.1.184a.287.287 0 0 0 .272-.18.609.609 0 0 0 .06-.268h.162a.508.508 0 0 0 .111.367.3.3 0 0 0 .224.083.343.343 0 0 0 .321-.173.558.558 0 0 0 .068-.277h.164a.528.528 0 0 0 .108.377.251.251 0 0 0 .186.071.517.517 0 0 0 .346-.111 1.772 1.772 0 0 0-.234-.387l.281-.368a.767.767 0 0 1 .131.232.809.809 0 0 1 .073.3 1.1 1.1 0 0 1-.064.264c-.017.053-.047.132-.1.263a.59.59 0 0 1-.188.213.46.46 0 0 1-.267.096zm-4.887-1a1.142 1.142 0 0 0-.525.281.57.57 0 0 0 .447.133 1.39 1.39 0 0 0 .159-.009l-.081-.4zm-2.922 1a.4.4 0 0 1-.285-.131.531.531 0 0 1-.153-.276.485.485 0 0 1-.16.272.424.424 0 0 1-.287.135h-.15a.4.4 0 0 1-.285-.131.53.53 0 0 1-.152-.276.487.487 0 0 1-.161.272.421.421 0 0 1-.286.135h-.056a.449.449 0 0 1-.469-.293 3.572 3.572 0 0 1-.1-.883C3.678 1.03 3.67.889 3.659.811a1.581 1.581 0 0 0-.12-.453L3.883 0a.928.928 0 0 1 .108.417C4 .482 4 .627 4 .85v.55a1.269 1.269 0 0 0 .035.356.254.254 0 0 0 .257.2.343.343 0 0 0 .3-.167.529.529 0 0 0 .089-.306h.16a.572.572 0 0 0 .085.324.327.327 0 0 0 .291.148h.111a.343.343 0 0 0 .3-.167.529.529 0 0 0 .089-.306h.16a.558.558 0 0 0 .085.324.325.325 0 0 0 .29.148h.14c.03 0 .095-.005.209-.017a.429.429 0 0 1-.226-.388.679.679 0 0 1 .279-.5.747.747 0 0 1 .46-.224.609.609 0 0 1 .528.345c.015.026.021.044.016.053a.012.012 0 0 1-.011.005.184.184 0 0 1-.051-.013.774.774 0 0 0-.272-.039.9.9 0 0 0-.551.154.627.627 0 0 0 .424.522l.711-.182-.219.467c-.275.061-.6.137-.984.234a2.825 2.825 0 0 1-.476.087zm-.707-1.444L5.245.776 5.5.515l.264.231L6.01.5l.278.244L6.027 1 5.763.776l-.241.238z" transform="translate(6.948 10.938)"/>
        <path id="Shape-2" fill="#fdb816" d="M12.79 12.076a.735.735 0 0 1-.734-.734v-.333h-1.144a.824.824 0 0 1-.823-.823.165.165 0 0 1 .165-.165h2.521a.182.182 0 0 1 .182.182v1.709a.166.166 0 0 1-.167.164zm-9.836-.583A2.868 2.868 0 0 1 .017 8.981a6.762 6.762 0 0 1 1.575-4.23.559.559 0 0 1 .469-.161 1.953 1.953 0 0 1 .4.045A2.842 2.842 0 0 1 2 5.469C1.328 6.477.315 8 1 9.532c.171.381.732.618 1.465.618a3.284 3.284 0 0 0 1.3-.265A3.815 3.815 0 0 0 5.4 8.342a12.05 12.05 0 0 0 1.1-2.709c.131-.494.244-.919.343-1.3l.012-.033a.5.5 0 0 1 .481-.373h1.1a.25.25 0 0 1 .2.1.247.247 0 0 1 .035.223c-.351 1.069-.692 2.039-.986 2.8a1.6 1.6 0 0 0 .284 1.2.518.518 0 0 0 .667.114c.39-.22.78-1.513 1.111-2.748.125-.465.259-.981.35-1.332a.5.5 0 0 1 .481-.372h.952a.249.249 0 0 1 .237.326c-.176.539-.636 1.919-1.1 3.093.017.764.36 1.106.692 1.106a.544.544 0 0 0 .268-.074c.39-.22.78-1.513 1.111-2.748.121-.454.239-.9.35-1.332a.5.5 0 0 1 .481-.372h.952a.249.249 0 0 1 .238.326c-.206.628-.614 1.842-1.026 2.905a1.354 1.354 0 0 0 .325.989.945.945 0 0 0 .7.274 1.7 1.7 0 0 0 .425-.06c.594-.158.99-1.644 1.28-2.729.127-.475.258-.974.351-1.333a.5.5 0 0 1 .481-.372h.957a.253.253 0 0 1 .2.1.249.249 0 0 1 .037.222c-.255.814-.757 2.353-1.261 3.514.044.423.272.7.58.7a.587.587 0 0 0 .295-.083c.39-.22.78-1.513 1.111-2.748.128-.477.243-.92.35-1.332a.5.5 0 0 1 .481-.372H21a.249.249 0 0 1 .238.326C21 4.993 20.52 6.4 20.065 7.534a1.042 1.042 0 0 0 .226.768.493.493 0 0 0 .362.158.585.585 0 0 0 .294-.083c.39-.22.78-1.513 1.111-2.748.141-.527.287-1.085.35-1.332a.5.5 0 0 1 .481-.372h.952a.249.249 0 0 1 .237.326c-.264.81-.941 2.826-1.508 4.063a1.621 1.621 0 0 1-1.647 1.156h-.063a1.032 1.032 0 0 1-.724-.356 1.383 1.383 0 0 1-.242-1.156v-.027l.006-.019c-.061.143-.121.278-.177.4a1.621 1.621 0 0 1-1.638 1.158h-.064a1.033 1.033 0 0 1-.724-.356 1.5 1.5 0 0 1-.287-.863l-.031.064A1.813 1.813 0 0 1 15.3 9.47h-.17a1.539 1.539 0 0 1-1.058-.37 2.541 2.541 0 0 1-.587-1.316c-.1.239-.168.394-.232.534a1.621 1.621 0 0 1-1.646 1.152h-.064a1.2 1.2 0 0 1-.724-.356 2.141 2.141 0 0 1-.419-1.106l-.042.1-.032.071c-.023.052-.043.1-.063.138A1.621 1.621 0 0 1 8.615 9.47h-.063a1.2 1.2 0 0 1-.724-.356 2.321 2.321 0 0 1-.438-1.308c-.088.21-.157.368-.223.512a4.947 4.947 0 0 1-1.922 2.409 4.071 4.071 0 0 1-2.29.766zm6.58-.484H7.483a.824.824 0 0 1-.823-.823.165.165 0 0 1 .049-.117.163.163 0 0 1 .116-.048h2.71a.182.182 0 0 1 .182.182v.625a.182.182 0 0 1-.182.181zm16.983-1.472h-.006a3.122 3.122 0 0 1-1.085-.253 2.033 2.033 0 0 1-1.2-1.259 6.418 6.418 0 0 1 .4-4.052A15.576 15.576 0 0 1 26.32.459.96.96 0 0 1 27.137 0h.02l.608.013h.246l.368.008a.154.154 0 0 1 .136.091.151.151 0 0 1-.024.161 12.31 12.31 0 0 0-2.957 5.177 2.554 2.554 0 0 0 .486 2.028 1.814 1.814 0 0 0 1.424.617h.043a3.182 3.182 0 0 0 2.651-1.381.958.958 0 0 0 .2-.79c-.353-.784-1.55-.949-2.491-.949a9.671 9.671 0 0 0-1.064.062h-.023a.3.3 0 0 1-.275-.431 7.9 7.9 0 0 1 1.524-2.2A9.213 9.213 0 0 1 31.733.433a9.959 9.959 0 0 1 2.593-.277h.4a.28.28 0 0 1 .2.094.284.284 0 0 1 .074.217 2.5 2.5 0 0 1-.348 1.154.523.523 0 0 1-.418.209.532.532 0 0 1-.133-.017 6.442 6.442 0 0 0-1.02-.07 11.787 11.787 0 0 0-2.125.2 4.728 4.728 0 0 0-3.071 1.893 7.125 7.125 0 0 1 .725-.036 2.166 2.166 0 0 1 2.071.874 3.116 3.116 0 0 1-.452 2.809 4.4 4.4 0 0 1-3.712 2.054zM4.4 6.022h-.248a.659.659 0 0 1-.619-.885l.113-.312.08-.225a1.126 1.126 0 0 1 1.055-.738h.566a.406.406 0 0 1 .381.544l-.328.918a1.064 1.064 0 0 1-1 .698z" transform="translate(0 11.398)"/>
    </g>
</svg>
