<svg xmlns="http://www.w3.org/2000/svg" width="35" height="35" viewBox="0 0 35 35">
    <defs>
        <clipPath id="clip-path">
            <path d="M0 0H35V35H0z" class="cls-1"/>
        </clipPath>
        <style>
            .cls-1{fill:none}
        </style>
    </defs>
    <g id="Bank_Bank_Markazi_Color" clip-path="url(#clip-path)">
        <path id="Boundary" d="M0 0H35V35H0z" class="cls-1"/>
        <path id="Shape" fill="#00194a" d="M17.5 35a1.71 1.71 0 0 1-1.219-.5l-3.163-3.163H16.4a2.545 2.545 0 0 0 1.811-.75l8.013-8.013.035 4.381-7.541 7.545a1.709 1.709 0 0 1-1.218.5zm12.879-4.621h-6.2l2.324-2.324a2.542 2.542 0 0 0 .749-1.807V14.913l3.123 3.073v12.392zm-13.365 0H4.621v-6.2l2.325 2.324a2.574 2.574 0 0 0 1.807.749h11.334l-3.073 3.123zM8.05 26.263L.5 18.718A1.735 1.735 0 0 1 0 17.5a1.712 1.712 0 0 1 .5-1.219l3.163-3.163V16.4a2.545 2.545 0 0 0 .75 1.811l8.013 8.013zm9.45-.73a8.033 8.033 0 1 1 8.033-8.033 8.042 8.042 0 0 1-8.033 8.033zm13.832-3.651V18.6a2.544 2.544 0 0 0-.75-1.811l-8.013-8.017 4.381-.035 7.55 7.545a1.723 1.723 0 0 1 0 2.437L31.413 21.8l-.079.079zM7.744 20.087l-3.123-3.073V4.621h6.2L8.493 6.946a2.539 2.539 0 0 0-.748 1.807v11.334zm1.028-7.656L8.737 8.05 16.282.5A1.712 1.712 0 0 1 17.5 0a1.735 1.735 0 0 1 1.218.5l3.163 3.163H18.6a2.544 2.544 0 0 0-1.811.75L8.773 12.43zm21.607-1.614l-2.324-2.324a2.541 2.541 0 0 0-1.807-.748H14.913l3.073-3.124h12.393v6.2z" transform="translate(0 0)"/>
    </g>
</svg>
