<svg xmlns="http://www.w3.org/2000/svg" width="35" height="35" viewBox="0 0 35 35">
    <defs>
        <clipPath id="clip-path">
            <path d="M0 0H35V35H0z" class="cls-1"/>
        </clipPath>
        <style>
            .cls-1{fill:none}
        </style>
    </defs>
    <g id="Bank_Taavon_Eslami_Color" clip-path="url(#clip-path)">
        <path id="Boundary" d="M0 0H35V35H0z" class="cls-1"/>
        <path id="Shape" fill="#00920a" d="M18.119 35v-4.008a11.174 11.174 0 0 0 9.148-15.428l3.48-2.008a15.181 15.181 0 0 1 .488 11.459 5.483 5.483 0 0 0-.717-.057 4.5 4.5 0 0 0-3.95 6.651A15.068 15.068 0 0 1 18.119 35zm-2.559-.019a15.08 15.08 0 0 1-8.22-3.371 4.5 4.5 0 0 0-3.95-6.651 4.133 4.133 0 0 0-.717.057 15.184 15.184 0 0 1 .44-11.355l3.487 2.01a11.173 11.173 0 0 0 8.964 15.3v4.009zm14.957-2.139a3.387 3.387 0 1 1 3.39-3.387 3.392 3.392 0 0 1-3.39 3.387zm-27.127 0a3.387 3.387 0 1 1 3.39-3.387 3.392 3.392 0 0 1-3.39 3.387zm12.341-3.461a9.629 9.629 0 0 1-5.5-2.681 10.5 10.5 0 0 1 2-1.225l.029-.013A11.163 11.163 0 0 0 13.3 27.1a10.537 10.537 0 0 0 1.555 1.626 9.546 9.546 0 0 0 .876.657zm2.475 0c.27-.181.562-.4.87-.654a10.542 10.542 0 0 0 1.707-1.829 11.713 11.713 0 0 0 .889-1.425l.011.005a10.07 10.07 0 0 1 2 1.225 9.49 9.49 0 0 1-5.476 2.677zm-.958-.072v-4.864a11.324 11.324 0 0 1 1.252.1 11.151 11.151 0 0 1 2.658.7 10.508 10.508 0 0 1-1.045 1.6 9.88 9.88 0 0 1-1.488 1.519 9.151 9.151 0 0 1-1.376.935zm-.589-.012a8.755 8.755 0 0 1-1.359-.927 9.878 9.878 0 0 1-1.488-1.519 10.458 10.458 0 0 1-1.049-1.612 11.073 11.073 0 0 1 2.64-.694c.424-.054.834-.087 1.252-.1v4.846zm7.4-2.983a10.721 10.721 0 0 0-2.144-1.322 12.178 12.178 0 0 0 1.112-4.813h3.512a9.568 9.568 0 0 1-2.478 6.135zm-14.2 0a9.573 9.573 0 0 1-2.478-6.135h3.534a12.207 12.207 0 0 0 1.108 4.8l-.023.009a10.734 10.734 0 0 0-2.148 1.322zm11.541-1.55a11.464 11.464 0 0 0-2.824-.751 12.075 12.075 0 0 0-1.324-.1v-3.738h5.215a11.567 11.567 0 0 1-1.067 4.589zm-8.869-.007a11.6 11.6 0 0 1-1.062-4.582h5.194v3.734a12.92 12.92 0 0 0-1.324.1 11.65 11.65 0 0 0-2.807.744zm14.006-5.17h-3.515a12.162 12.162 0 0 0-1.112-4.814 11.009 11.009 0 0 0 2.145-1.322 9.566 9.566 0 0 1 2.479 6.135zm-4.071 0h-5.218v-3.734a11.877 11.877 0 0 0 3.116-.492A10.656 10.656 0 0 0 21.4 15a11.589 11.589 0 0 1 1.066 4.589zm-5.8 0h-5.201A11.542 11.542 0 0 1 12.528 15c.314.127.655.247 1.015.357a11.81 11.81 0 0 0 3.116.492v3.733zm-5.753 0H7.372a9.566 9.566 0 0 1 2.479-6.135 11.15 11.15 0 0 0 2.163 1.33 12.123 12.123 0 0 0-1.108 4.8zm5.753-4.27a11.292 11.292 0 0 1-2.961-.469c-.315-.094-.628-.2-.93-.325l.011-.02.021-.039.017-.032a10.567 10.567 0 0 1 .925-1.425 10.021 10.021 0 0 1 1.652-1.688 9.454 9.454 0 0 1 1.265-.85v4.848zm.589 0v-4.86a9.306 9.306 0 0 1 1.287.862 9.992 9.992 0 0 1 1.652 1.688 10.588 10.588 0 0 1 .925 1.425l.023.042.022.042c-.319.129-.638.24-.948.333a11.309 11.309 0 0 1-2.968.467zm-5-1.017a10.351 10.351 0 0 1-2.027-1.238 9.623 9.623 0 0 1 5.506-2.682 9.711 9.711 0 0 0-.782.579 10.482 10.482 0 0 0-1.727 1.806 11.169 11.169 0 0 0-.959 1.515l-.01.019zm9.419-.008a11.218 11.218 0 0 0-1.041-1.627 10.5 10.5 0 0 0-1.555-1.626 9.931 9.931 0 0 0-.873-.655 9.494 9.494 0 0 1 5.479 2.678 10.351 10.351 0 0 1-2.009 1.23zm-13.846-.863l-3.47-2a15.209 15.209 0 0 1 8.51-6.153 4.5 4.5 0 0 0 8.17 0 15.219 15.219 0 0 1 8.447 6.058l-3.473 2a11.178 11.178 0 0 0-18.183.093zm9.125-6.655a3.387 3.387 0 1 1 3.39-3.387 3.392 3.392 0 0 1-3.39 3.387z" transform="translate(0.547 0)"/>
    </g>
</svg>
